<svg xmlns="http://www.w3.org/2000/svg" height="24" width="24"><path d="M12 23Q9.2 23 6.85 21.725Q4.5 20.45 3 18.325V21H1V15H7V17H4.525Q5.725 18.8 7.688 19.9Q9.65 21 12 21Q13.875 21 15.513 20.288Q17.15 19.575 18.363 18.362Q19.575 17.15 20.288 15.512Q21 13.875 21 12H23Q23 14.275 22.138 16.275Q21.275 18.275 19.775 19.775Q18.275 21.275 16.275 22.137Q14.275 23 12 23ZM1 12Q1 9.725 1.863 7.725Q2.725 5.725 4.225 4.225Q5.725 2.725 7.725 1.862Q9.725 1 12 1Q14.8 1 17.15 2.275Q19.5 3.55 21 5.675V3H23V9H17V7H19.475Q18.275 5.2 16.312 4.1Q14.35 3 12 3Q10.125 3 8.488 3.712Q6.85 4.425 5.638 5.637Q4.425 6.85 3.712 8.487Q3 10.125 3 12ZM11.1 19H12.85V17.75Q14.1 17.525 15 16.775Q15.9 16.025 15.9 14.55Q15.9 13.5 15.3 12.625Q14.7 11.75 12.9 11.1Q11.4 10.6 10.825 10.225Q10.25 9.85 10.25 9.2Q10.25 8.55 10.713 8.175Q11.175 7.8 12.05 7.8Q12.85 7.8 13.3 8.188Q13.75 8.575 13.95 9.15L15.55 8.5Q15.275 7.625 14.538 6.975Q13.8 6.325 12.9 6.25V5H11.15V6.25Q9.9 6.525 9.2 7.35Q8.5 8.175 8.5 9.2Q8.5 10.375 9.188 11.1Q9.875 11.825 11.35 12.35Q12.925 12.925 13.538 13.375Q14.15 13.825 14.15 14.55Q14.15 15.375 13.562 15.762Q12.975 16.15 12.15 16.15Q11.325 16.15 10.688 15.637Q10.05 15.125 9.75 14.1L8.1 14.75Q8.45 15.95 9.188 16.688Q9.925 17.425 11.1 17.7Z"/></svg>